<mxfile host="app.diagrams.net" modified="2023-07-10T02:27:50.630Z" agent="Mozilla/5.0 (Windows NT 10.0; Win64; x64) AppleWebKit/537.36 (KHTML, like Gecko) Chrome/114.0.0.0 Safari/537.36" etag="F1mf-Gb0tTAVCQz03HVe" version="21.6.1" type="github">
  <diagram name="페이지-1" id="xHLtVfFAa8tFA3_w6fn9">
    <mxGraphModel dx="750" dy="392" grid="1" gridSize="10" guides="1" tooltips="1" connect="1" arrows="1" fold="1" page="1" pageScale="1" pageWidth="827" pageHeight="1169" background="#FFFFFF" math="0" shadow="0">
      <root>
        <mxCell id="0" />
        <mxCell id="1" parent="0" />
        <mxCell id="_LY8ih94ANXlv8mfPCon-3" value="학생" style="whiteSpace=wrap;html=1;align=center;gradientColor=none;labelBackgroundColor=#FFFFFF;" vertex="1" parent="1">
          <mxGeometry x="340" y="240" width="100" height="40" as="geometry" />
        </mxCell>
        <mxCell id="_LY8ih94ANXlv8mfPCon-4" value="수강" style="shape=rhombus;perimeter=rhombusPerimeter;whiteSpace=wrap;html=1;align=center;labelBackgroundColor=#FFFFFF;" vertex="1" parent="1">
          <mxGeometry x="480" y="230" width="120" height="60" as="geometry" />
        </mxCell>
        <mxCell id="_LY8ih94ANXlv8mfPCon-5" value="과목" style="whiteSpace=wrap;html=1;align=center;gradientColor=none;labelBackgroundColor=#FFFFFF;" vertex="1" parent="1">
          <mxGeometry x="640" y="240" width="100" height="40" as="geometry" />
        </mxCell>
        <mxCell id="_LY8ih94ANXlv8mfPCon-6" value="" style="endArrow=none;html=1;rounded=0;exitX=1;exitY=0.5;exitDx=0;exitDy=0;entryX=0;entryY=0.5;entryDx=0;entryDy=0;labelBackgroundColor=#FFFFFF;" edge="1" parent="1" source="_LY8ih94ANXlv8mfPCon-4" target="_LY8ih94ANXlv8mfPCon-5">
          <mxGeometry relative="1" as="geometry">
            <mxPoint x="370" y="310" as="sourcePoint" />
            <mxPoint x="530" y="310" as="targetPoint" />
          </mxGeometry>
        </mxCell>
        <mxCell id="_LY8ih94ANXlv8mfPCon-7" value="N" style="resizable=0;html=1;whiteSpace=wrap;align=right;verticalAlign=bottom;labelBackgroundColor=#FFFFFF;" connectable="0" vertex="1" parent="_LY8ih94ANXlv8mfPCon-6">
          <mxGeometry x="1" relative="1" as="geometry" />
        </mxCell>
        <mxCell id="_LY8ih94ANXlv8mfPCon-10" value="" style="endArrow=none;html=1;rounded=0;entryX=1;entryY=0.5;entryDx=0;entryDy=0;exitX=0;exitY=0.5;exitDx=0;exitDy=0;labelBackgroundColor=#FFFFFF;" edge="1" parent="1" source="_LY8ih94ANXlv8mfPCon-4" target="_LY8ih94ANXlv8mfPCon-3">
          <mxGeometry relative="1" as="geometry">
            <mxPoint x="370" y="310" as="sourcePoint" />
            <mxPoint x="530" y="310" as="targetPoint" />
          </mxGeometry>
        </mxCell>
        <mxCell id="_LY8ih94ANXlv8mfPCon-11" value="1" style="resizable=0;html=1;whiteSpace=wrap;align=right;verticalAlign=bottom;labelBackgroundColor=#FFFFFF;" connectable="0" vertex="1" parent="_LY8ih94ANXlv8mfPCon-10">
          <mxGeometry x="1" relative="1" as="geometry" />
        </mxCell>
      </root>
    </mxGraphModel>
  </diagram>
</mxfile>
